# xmcd
#
# Track frame offsets: 
#        150
#        29218
#        62783
#        97515
#        120000
#        152987
#        179798
#        193130
#        209485
#        232942
#        260997
#        300650
#
# Disc length: 4414 seconds
#
# Revision: 0
# Processed by: cddbd v1.5.2PL0 Copyright (c) Steve Scherf et al.
# Submitted via: ExactAudioCopyFreeDBPlugin 1.0
#
DISCID=aa113c0c
DTITLE=Blues-Rock Collection (Various Artists) - Gekko Musik 19
DYEAR=2011
DGENRE=Blues-Rock
TTITLE0=Pink Floyd - Money
TTITLE1=Led Zeppelin - Since I´ve Been Loving You
TTITLE2=Wishbone Ash - The King Will Come
TTITLE3=Jeff Beck - Behind The Veil
TTITLE4=Rolling Stones - Can´t You Hear Me Knocking
TTITLE5=Aphrodites Child - The Four Horsemen
TTITLE6=Cream - I Feel Free
TTITLE7=Deep Purple - Hush
TTITLE8=Genesis - Seven Stones
TTITLE9=Frank Zappa - Joe´s Garage
TTITLE10=Neil Young - Crime In The City
TTITLE11=BAP - Nimm mir die Angst
EXTD=
EXTT0=
EXTT1=
EXTT2=
EXTT3=
EXTT4=
EXTT5=
EXTT6=
EXTT7=
EXTT8=
EXTT9=
EXTT10=
EXTT11=
PLAYORDER=
